<svg width="110" height="110" viewBox="0 0 110 110" fill="none" xmlns="http://www.w3.org/2000/svg">
<path d="M39.4714 26.0514C42.4718 26.0514 44.9041 23.6191 44.9041 20.6187C44.9041 17.6183 42.4718 15.186 39.4714 15.186C36.471 15.186 34.0387 17.6183 34.0387 20.6187C34.0387 23.6191 36.471 26.0514 39.4714 26.0514Z" fill="#FFA647"/>
<path d="M47.6366 14.949C51.6924 14.949 54.9803 11.6611 54.9803 7.60525C54.9803 3.54939 51.6924 0.261475 47.6366 0.261475C43.5807 0.261475 40.2928 3.54939 40.2928 7.60525C40.2928 11.6611 43.5807 14.949 47.6366 14.949Z" fill="white"/>
<path d="M50.6321 21.3769C52.0509 21.3769 53.2012 20.2267 53.2012 18.8079C53.2012 17.389 52.0509 16.2388 50.6321 16.2388C49.2132 16.2388 48.063 17.389 48.063 18.8079C48.063 20.2267 49.2132 21.3769 50.6321 21.3769Z" fill="white"/>
<path d="M63.2035 17.2709C66.4832 17.2709 69.1418 14.6122 69.1418 11.3326C69.1418 8.05296 66.4832 5.39429 63.2035 5.39429C59.9239 5.39429 57.2652 8.05296 57.2652 11.3326C57.2652 14.6122 59.9239 17.2709 63.2035 17.2709Z" fill="#FFA647"/>
<path d="M70.0154 27.315C72.6844 27.315 74.8481 25.1513 74.8481 22.4823C74.8481 19.8133 72.6844 17.6497 70.0154 17.6497C67.3464 17.6497 65.1827 19.8133 65.1827 22.4823C65.1827 25.1513 67.3464 27.315 70.0154 27.315Z" fill="#FFA647"/>
<path d="M65.5087 36.8382C68.1777 36.8382 70.3414 34.6745 70.3414 32.0055C70.3414 29.3365 68.1777 27.1729 65.5087 27.1729C62.8397 27.1729 60.676 29.3365 60.676 32.0055C60.676 34.6745 62.8397 36.8382 65.5087 36.8382Z" fill="white"/>
<path d="M58.5497 26.5568C60.3291 26.5568 61.7715 25.1144 61.7715 23.3351C61.7715 21.5557 60.3291 20.1133 58.5497 20.1133C56.7704 20.1133 55.3279 21.5557 55.3279 23.3351C55.3279 25.1144 56.7704 26.5568 58.5497 26.5568Z" fill="white"/>
<path d="M79.7756 27.8205C81.5549 27.8205 82.9973 26.3781 82.9973 24.5987C82.9973 22.8194 81.5549 21.377 79.7756 21.377C77.9962 21.377 76.5538 22.8194 76.5538 24.5987C76.5538 26.3781 77.9962 27.8205 79.7756 27.8205Z" fill="white"/>
<path d="M84.0082 19.9875C85.5085 19.9875 86.7248 18.7713 86.7248 17.271C86.7248 15.7707 85.5085 14.5544 84.0082 14.5544C82.5079 14.5544 81.2917 15.7707 81.2917 17.271C81.2917 18.7713 82.5079 19.9875 84.0082 19.9875Z" fill="#FFA647"/>
<path d="M76.2798 36.7753C77.7801 36.7753 78.9963 35.5591 78.9963 34.0588C78.9963 32.5585 77.7801 31.3423 76.2798 31.3423C74.7795 31.3423 73.5632 32.5585 73.5632 34.0588C73.5632 35.5591 74.7795 36.7753 76.2798 36.7753Z" fill="#FFA647"/>
<path d="M93.0027 30.846L89.3455 30.6566C90.3558 32.8497 91.5538 36.6356 91.2728 41.9319C90.8668 49.626 84.9164 54.4462 79.5237 55.0745C75.357 55.5605 57.2247 54.6399 55.3274 54.5416L55.1955 54.5348C55.0077 54.5251 54.8314 54.4411 54.7054 54.3014C54.5795 54.1617 54.5142 53.9776 54.5239 53.7898C54.5336 53.6019 54.6176 53.4256 54.7573 53.2996C54.897 53.1737 55.0811 53.1084 55.2689 53.1181C55.4724 53.1287 75.1739 54.154 79.3605 53.6659C84.1766 53.1042 89.4922 48.7745 89.8576 41.8573C90.1535 36.2547 88.672 32.4228 87.714 30.5721L81.9885 30.2755C82.5338 33.8166 82.1525 37.2492 79.2379 38.799C71.0821 44.1077 54.3039 40.5744 54.783 28.8664L22.7176 27.2056C22.7176 27.2056 24.2869 30.337 25.4963 38.5461C26.7057 46.7552 30.149 53.8733 31.7997 56.3503L76.4186 58.6613C88.9808 59.312 99.1823 46.958 93.0027 30.846Z" fill="#FFA647"/>
<path d="M68.6801 81.9391L33.7151 80.3843L33.4871 85.5105L68.4522 87.0653L68.6801 81.9391Z" fill="white"/>
<path d="M92.871 74.3609C92.9187 67.1774 87.0463 61.3355 79.87 61.0164L48.6215 59.6269C43.3056 59.3905 38.2357 57.3205 34.2735 53.7688C30.3113 50.217 27.7014 45.4027 26.8875 40.1442L25.5626 31.5876C24.838 26.9807 22.6929 22.7151 19.4268 19.3864C16.1607 16.0576 11.9367 13.8318 7.34444 13.0197C6.67296 12.9093 5.98515 13.0703 5.43232 13.467C4.87948 13.8638 4.50692 14.464 4.39658 15.1355C4.28623 15.8069 4.44716 16.4948 4.84394 17.0476C5.24073 17.6004 5.84088 17.973 6.51236 18.0833C10.0383 18.7174 13.2791 20.4342 15.7844 22.995C18.2898 25.5558 19.9351 28.8335 20.4918 32.3724L21.8162 40.929C22.8117 47.3592 26.0032 53.2463 30.8483 57.5895C35.6935 61.9327 41.8931 64.464 48.3935 64.753L79.9664 66.157C81.0991 66.2088 82.2085 66.4965 83.2236 67.0019C84.2386 67.5072 85.137 68.2189 85.8611 69.0915C86.5851 69.9641 87.119 70.9782 87.4285 72.0691C87.738 73.1599 87.8162 74.3033 87.6582 75.4262C87.0889 79.5123 83.4249 82.4258 79.3248 82.398L79.0963 87.537C80.8728 87.6034 82.6445 87.3124 84.3064 86.6813C85.9682 86.0502 87.4865 85.0918 88.7711 83.863C90.0557 82.6342 91.0806 81.16 91.7848 79.5278C92.4891 77.8955 92.8584 76.1385 92.871 74.3609V74.3609Z" fill="white"/>
<path d="M28.7029 74.5342C27.085 74.462 25.482 74.8712 24.0967 75.71C22.7114 76.5489 21.606 77.7797 20.9202 79.2468C20.2344 80.714 19.9992 82.3515 20.2441 83.9524C20.4891 85.5532 21.2032 87.0455 22.2963 88.2405C23.3894 89.4354 24.8123 90.2794 26.3851 90.6656C27.9578 91.0519 29.6098 90.963 31.1321 90.4103C32.6543 89.8577 33.9785 88.866 34.9371 87.5607C35.8958 86.2554 36.4458 84.6952 36.5177 83.0773C36.6141 80.9081 35.845 78.7895 34.3795 77.1874C32.9139 75.5853 30.872 74.6309 28.7029 74.5342V74.5342ZM28.1597 86.7497C27.3614 86.7143 26.5916 86.4429 25.9475 85.97C25.3034 85.497 24.8141 84.8437 24.5413 84.0926C24.2686 83.3415 24.2247 82.5265 24.4152 81.7504C24.6057 80.9744 25.022 80.2723 25.6115 79.7329C26.2011 79.1935 26.9373 78.841 27.7272 78.7201C28.517 78.5991 29.325 78.7151 30.049 79.0534C30.7729 79.3916 31.3803 79.937 31.7943 80.6204C32.2083 81.3039 32.4103 82.0948 32.3748 82.893C32.3272 83.9634 31.8564 84.971 31.0659 85.6943C30.2754 86.4175 29.23 86.7971 28.1597 86.7497V86.7497Z" fill="white"/>
<path d="M28.5 87.5C30.9853 87.5 33 85.4853 33 83C33 80.5147 30.9853 78.5 28.5 78.5C26.0147 78.5 24 80.5147 24 83C24 85.4853 26.0147 87.5 28.5 87.5Z" fill="#FFA647"/>
<path d="M74.4513 76.5683C72.8334 76.4963 71.2305 76.9057 69.8453 77.7446C68.4601 78.5836 67.3548 79.8145 66.6692 81.2816C65.9836 82.7488 65.7484 84.3863 65.9935 85.9871C66.2385 87.5879 66.9527 89.0801 68.0459 90.275C69.139 91.4698 70.5619 92.3137 72.1346 92.6999C73.7074 93.086 75.3593 92.9972 76.8815 92.4445C78.4037 91.8918 79.7279 90.9001 80.6865 89.5948C81.6451 88.2895 82.1951 86.7293 82.2669 85.1115C82.3633 82.9422 81.594 80.8235 80.1283 79.2214C78.6626 77.6192 76.6205 76.6649 74.4513 76.5683V76.5683ZM73.9081 88.7838C73.1098 88.7484 72.3399 88.4771 71.6959 88.0041C71.0518 87.5311 70.5625 86.8778 70.2897 86.1267C70.0169 85.3757 69.973 84.5606 70.1635 83.7846C70.354 83.0085 70.7704 82.3064 71.3599 81.767C71.9495 81.2276 72.6857 80.8752 73.4756 80.7542C74.2654 80.6333 75.0734 80.7492 75.7974 81.0875C76.5213 81.4258 77.1287 81.9711 77.5427 82.6546C77.9567 83.338 78.1587 84.1289 78.1232 84.9272C78.0997 85.4572 77.972 85.9774 77.7474 86.458C77.5229 86.9387 77.2058 87.3704 76.8144 87.7285C76.423 88.0867 75.9649 88.3642 75.4662 88.5453C74.9675 88.7263 74.4381 88.8074 73.9081 88.7838Z" fill="white"/>
<path d="M74.5 89.5C76.9853 89.5 79 87.4853 79 85C79 82.5147 76.9853 80.5 74.5 80.5C72.0147 80.5 70 82.5147 70 85C70 87.4853 72.0147 89.5 74.5 89.5Z" fill="#FFA647"/>
</svg>
